<?xml version="1.0" encoding="utf-8"?>
<!-- Generator: Adobe Illustrator 23.0.2, SVG Export Plug-In . SVG Version: 6.00 Build 0)  -->
<svg version="1.1" id="Layer_1" xmlns="http://www.w3.org/2000/svg" xmlns:xlink="http://www.w3.org/1999/xlink" x="0px" y="0px"
	 viewBox="0 0 64 64" style="enable-background:new 0 0 64 64;" xml:space="preserve">
<style type="text/css">
	.st0{fill:#F7941D;}
	.st1{fill:#FFFFFF;}
</style>
<g>
	<g>
		<g>
			<ellipse transform="matrix(0.7071 -0.7071 0.7071 0.7071 -13.2548 32)" class="st0" cx="32" cy="32" rx="32" ry="32"/>
		</g>
	</g>
	<g>
		<g>
			<path class="st1" d="M45.74,33.93c-0.98-1.27-2.37-2.18-4.19-2.7c1.29-0.58,2.31-1.46,3.06-2.62c0.75-1.16,1.13-2.45,1.13-3.84
				c0-1.29-0.3-2.45-0.91-3.48c-0.61-1.04-1.37-1.87-2.29-2.49c-0.91-0.62-1.95-1.03-3.11-1.23c-0.83-0.14-1.97-0.23-3.41-0.27
				v-5.75h-4.51v5.72h-2.94v-5.72h-4.46v5.72h-7.33v4.96h2.95c1.14,0,2.06,0.92,2.06,2.06v15.75c0,1.14-0.92,2.06-2.06,2.06h-2.95
				v4.96h7.33v5.4h4.46v-5.4h2.94v5.4h4.51v-5.44c1.74-0.04,2.99-0.09,3.62-0.15c1.6-0.18,2.94-0.64,4.03-1.41
				c1.09-0.76,1.95-1.79,2.58-3.07c0.63-1.28,0.94-2.6,0.94-3.95C47.21,36.7,46.72,35.2,45.74,33.93z M31.72,22.23
				c2.83,0,3.65,0.03,4.25,0.1c1,0.12,1.76,0.47,2.27,1.05c0.5,0.57,0.76,1.32,0.76,2.24c0,0.96-0.29,1.74-0.88,2.33
				c-0.59,0.59-1.4,0.95-2.43,1.07c-0.57,0.07-1.13,0.1-3.48,0.1h-3.5v-6.89H31.72z M39.25,40.67c-0.56,0.63-1.29,1.03-2.19,1.19
				c-0.58,0.12-1.07,0.18-3.23,0.18h-5.12v-7.97h4.41c2.74,0,3.62,0.15,4.44,0.43c0.82,0.29,1.45,0.74,1.88,1.36
				c0.44,0.62,0.66,1.38,0.66,2.28C40.1,39.19,39.81,40.04,39.25,40.67z"/>
		</g>
	</g>
</g>
</svg>
