<?xml version="1.0" encoding="utf-8"?>
<!-- Generator: Adobe Illustrator 23.0.2, SVG Export Plug-In . SVG Version: 6.00 Build 0)  -->
<svg version="1.1" id="Layer_1" xmlns="http://www.w3.org/2000/svg" xmlns:xlink="http://www.w3.org/1999/xlink" x="0px" y="0px"
	 viewBox="0 0 64 64" style="enable-background:new 0 0 64 64;" xml:space="preserve">
<style type="text/css">
	.st0{fill:#F99B1C;}
	.st1{opacity:0.5;}
	.st2{opacity:0.5;fill:#F99B1C;}
	.st3{fill:#FFD400;}
	.st4{fill:#FFFFFF;}
	.st5{fill:#ED1C24;}
</style>
<g>
	<g>
		<path class="st0" d="M60.55,26.41c0,12.38-10.03,22.41-22.41,22.41S15.74,38.78,15.74,26.41C15.74,14.03,25.77,4,38.14,4
			S60.55,14.03,60.55,26.41z"/>
		<g class="st1">
			<g>
				<path class="st0" d="M40.03,33.78H16.98c0.23,0.65,0.48,1.29,0.76,1.91h22.29V33.78z"/>
				<path class="st0" d="M40.03,30.45H16.1c0.12,0.65,0.26,1.28,0.44,1.91h23.5V30.45z"/>
				<path class="st0" d="M40.03,37.11H18.45c0.36,0.66,0.75,1.29,1.17,1.91h20.41V37.11z"/>
				<path class="st0" d="M40.03,40.44H20.67c0.54,0.67,1.11,1.31,1.72,1.91h17.64V40.44z"/>
				<path class="st0" d="M40.03,43.76H23.97c0.86,0.7,1.77,1.34,2.73,1.91h13.33V43.76z"/>
				<path class="st0" d="M40.03,27.12H15.75c0.02,0.64,0.07,1.28,0.14,1.91h24.14V27.12z"/>
				<path class="st0" d="M40.03,9.05V7.14H26.7c-0.96,0.57-1.87,1.21-2.73,1.91H40.03z"/>
				<path class="st0" d="M40.03,10.47H22.39c-0.61,0.6-1.18,1.24-1.72,1.91h19.36V10.47z"/>
				<path class="st0" d="M40.03,13.8H19.62c-0.42,0.62-0.81,1.25-1.17,1.91h21.58V13.8z"/>
				<path class="st0" d="M40.03,48.64v-1.55H29.52c2.5,1.04,5.23,1.65,8.09,1.72C38.43,48.79,39.24,48.74,40.03,48.64z"/>
				<path class="st0" d="M29.52,5.72h10.51V4.17c-0.8-0.1-1.61-0.15-2.43-0.17C34.75,4.07,32.02,4.68,29.52,5.72z"/>
				<path class="st0" d="M40.03,23.79H15.89c-0.07,0.63-0.12,1.27-0.14,1.91h24.28V23.79z"/>
				<path class="st0" d="M40.03,17.13H17.74c-0.28,0.62-0.54,1.26-0.76,1.91h23.05V17.13z"/>
				<path class="st0" d="M40.03,20.46h-23.5c-0.17,0.63-0.32,1.26-0.44,1.91h23.93V20.46z"/>
			</g>
		</g>
		<path class="st2" d="M39.63,43.38c-12.38,0-22.41-10.03-22.41-22.41c0-1.07,0.08-2.12,0.22-3.14c-1.1,2.64-1.7,5.54-1.7,8.58
			c0,12.38,10.03,22.41,22.41,22.41c11.31,0,20.66-8.38,22.19-19.26C56.96,37.67,48.96,43.38,39.63,43.38z"/>
		<path class="st3" d="M64,26.41c0,12.38-10.03,22.41-22.41,22.41c-12.38,0-22.41-10.03-22.41-22.41C19.18,14.03,29.22,4,41.59,4
			C53.97,4,64,14.03,64,26.41z"/>
		
			<ellipse transform="matrix(0.2487 -0.9686 0.9686 0.2487 5.6715 60.1271)" class="st0" cx="41.59" cy="26.41" rx="17.99" ry="17.99"/>
		<path class="st2" d="M52.57,12.15c2.92,3.2,4.7,7.45,4.7,12.13c0,9.94-8.06,17.99-17.99,17.99c-4.13,0-7.94-1.39-10.98-3.74
			c3.29,3.6,8.03,5.87,13.29,5.87c9.94,0,17.99-8.06,17.99-17.99C59.59,20.6,56.84,15.44,52.57,12.15z"/>
		<g>
			<path class="st0" d="M41.78,46.95c-11.33,0-20.55-9.22-20.55-20.55c0-11.33,9.22-20.55,20.55-20.55
				c11.33,0,20.55,9.22,20.55,20.55C62.33,37.74,53.11,46.95,41.78,46.95z M41.78,6.45c-11,0-19.95,8.95-19.95,19.95
				c0,11,8.95,19.95,19.95,19.95c11,0,19.95-8.95,19.95-19.95C61.74,15.41,52.79,6.45,41.78,6.45z"/>
		</g>
		<path class="st2" d="M47.22,26.58c0.69-0.25,1.28-0.53,1.78-0.88c0.5-0.34,0.91-0.69,1.25-1.12c0.31-0.41,0.59-0.87,0.75-1.38
			c0.16-0.5,0.22-1,0.22-1.53c0-0.94-0.16-1.72-0.47-2.47c-0.31-0.75-0.78-1.38-1.47-1.91c-0.66-0.53-1.53-0.94-2.59-1.22
			c-0.49-0.13-1.01-0.22-1.58-0.29v-2.3v-0.7l-0.72-0.56l-0.2,0.56h-0.98v2.89c-0.1,0-0.2,0-0.31,0h-1.5v-2.19v-0.7l-0.72-0.56
			l-0.22,0.56h-0.95v2.89h-4.39h-2.37v1.79H32.6l-0.32,0.19l0.75,0.58c0.02,0.02,0.05,0.04,0.08,0.06l0.04,0.03h0.01
			c0.11,0.07,0.23,0.12,0.38,0.16c0.03,0,0.09,0.03,0.19,0.03c0.09,0,0.25,0.06,0.47,0.09c0.22,0.03,0.56,0.09,0.94,0.16v16.41
			c-0.38,0.06-0.72,0.13-0.94,0.16c-0.22,0.03-0.38,0.09-0.47,0.09c-0.09,0-0.16,0.03-0.19,0.03c-0.53,0.12-0.78,0.44-0.78,0.97
			v0.69l-0.72,0.59l0.72,0.56h2.37h4.39v1.96h-0.24L38.8,40.6l0.72,0.56h0.36h1.53v-2.89h1.8v2.07h-0.17l-0.55,0.26l0.72,0.56h0.66
			h1.23v-2.96c0.74-0.08,1.42-0.22,2.05-0.43c1.03-0.34,1.87-0.78,2.56-1.38c0.69-0.59,1.22-1.31,1.59-2.12
			c0.38-0.81,0.56-1.69,0.56-2.66C51.87,28.95,50.31,27.26,47.22,26.58z M39.31,18.92h3.59c1.41,0,2.47,0.25,3.12,0.75
			c0.66,0.5,1,1.31,1,2.5c0,1.12-0.34,1.97-1.09,2.5c-0.75,0.53-1.81,0.78-3.25,0.78h-3.37V18.92z M47.5,32.86
			c-0.13,0.41-0.37,0.78-0.69,1.09c-0.31,0.31-0.72,0.56-1.25,0.75c-0.53,0.19-1.19,0.28-1.97,0.28h-4.28v-6.63h4.25
			c0.75,0,1.38,0.06,1.91,0.22c0.53,0.16,0.94,0.34,1.28,0.63c0.34,0.28,0.56,0.62,0.72,1c0.16,0.41,0.25,0.81,0.25,1.31
			C47.72,31.98,47.65,32.45,47.5,32.86z"/>
		<path class="st3" d="M46.5,26.02c0.69-0.25,1.28-0.53,1.78-0.87c0.5-0.34,0.91-0.69,1.25-1.12c0.31-0.41,0.59-0.87,0.75-1.38
			c0.16-0.5,0.22-1,0.22-1.53c0-0.94-0.16-1.72-0.47-2.47c-0.31-0.75-0.78-1.37-1.47-1.91c-0.66-0.53-1.53-0.94-2.59-1.22
			c-0.49-0.13-1.01-0.22-1.58-0.29v-3.01h-1.89v2.89c-0.1,0-0.2,0-0.31,0h-1.5v-2.89H38.8v2.89H34.4h-2.37v1.84
			c0,0.53,0.25,0.84,0.78,0.97c0.03,0,0.09,0.03,0.19,0.03c0.09,0,0.25,0.06,0.47,0.09c0.22,0.03,0.56,0.09,0.94,0.16v16.41
			c-0.37,0.06-0.72,0.13-0.94,0.16c-0.22,0.03-0.38,0.09-0.47,0.09c-0.09,0-0.16,0.03-0.19,0.03c-0.53,0.13-0.78,0.44-0.78,0.97
			v1.84h2.37h4.39v2.89h1.89V37.7h1.8v2.89h1.89v-2.96c0.74-0.08,1.42-0.22,2.05-0.43c1.03-0.34,1.87-0.78,2.56-1.38
			c0.69-0.59,1.22-1.31,1.59-2.13c0.38-0.81,0.56-1.69,0.56-2.66C51.15,28.39,49.59,26.7,46.5,26.02z M38.59,18.36h3.59
			c1.41,0,2.47,0.25,3.12,0.75c0.66,0.5,1,1.31,1,2.5c0,1.12-0.34,1.97-1.09,2.5c-0.75,0.53-1.81,0.78-3.25,0.78h-3.37V18.36z
			 M46.78,32.3c-0.13,0.41-0.37,0.78-0.69,1.09c-0.31,0.31-0.72,0.56-1.25,0.75c-0.53,0.19-1.19,0.28-1.97,0.28h-4.28V27.8h4.25
			c0.75,0,1.37,0.06,1.91,0.22c0.53,0.16,0.94,0.34,1.28,0.63c0.34,0.28,0.56,0.62,0.72,1C46.9,30.05,47,30.45,47,30.95
			C47,31.42,46.94,31.89,46.78,32.3z"/>
	</g>
	<g>
		<polygon class="st4" points="57.26,49.73 56.07,52.48 49.16,48.98 45.58,35.04 32.21,37.11 28.07,24.68 16.01,26.19 8.1,9.99 
			2.34,9.99 0.75,9.99 0,11.87 2.47,13.11 12.34,30.99 25.71,29.1 30.04,41.54 43.79,39.09 47,50.96 55,54.93 54.06,57.08 
			57.92,56.65 57.64,56.89 60.09,58.21 60.84,56.32 		"/>
		<g>
			<g>
				<polygon class="st5" points="48.41,50.86 44.83,36.92 31.46,38.99 27.31,26.56 15.26,28.07 7.35,11.87 1.58,11.87 0,11.87 
					11.58,32.87 24.96,30.99 29.29,43.42 43.04,40.97 46.24,52.84 54.3,56.84 55.53,54.47 				"/>
			</g>
			<polygon class="st5" points="52.55,58.96 56.51,51.61 60.09,58.21 			"/>
		</g>
	</g>
</g>
</svg>
