<?xml version="1.0" encoding="utf-8"?>
<!-- Generator: Adobe Illustrator 23.0.2, SVG Export Plug-In . SVG Version: 6.00 Build 0)  -->
<svg version="1.1" id="Layer_1" xmlns="http://www.w3.org/2000/svg" xmlns:xlink="http://www.w3.org/1999/xlink" x="0px" y="0px"
	 viewBox="0 0 64 64" style="enable-background:new 0 0 64 64;" xml:space="preserve">
<style type="text/css">
	.st0{fill:#FBAD18;}
	.st1{fill:#DD3728;}
	.st2{fill:#004767;}
	.st3{fill:#07191D;}
	.st4{fill:#FDFEFF;}
	.st5{fill:#D1D1D1;}
	.st6{fill:#1E6178;}
	.st7{fill:#F2652D;}
	.st8{fill:#157571;}
	.st9{opacity:0.22;fill:#D1D1D1;}
	.st10{fill:#F7941D;}
	.st11{fill:#FFFFFF;}
</style>
<g>
	<g>
		<g>
			<g>
				<path class="st0" d="M8.33,55.76c14.19-1.28,13.63-8.72,13.63-8.72l-2.36-2.4l-0.02-0.02l-2.36-2.4c0,0-7.43-0.66-8.9,13.51
					l-0.03,0.03c0.01,0,0.02,0,0.03,0c0,0.01,0,0.02,0,0.03L8.33,55.76z"/>
				<g>
					<g id="rocket_1_">
						
							<rect x="19.23" y="37.6" transform="matrix(0.7022 -0.712 0.712 0.7022 -24.7538 28.0767)" class="st1" width="3.91" height="12.06"/>
						<path class="st2" d="M34.02,30.13c-8.28-8.17-21.5-8.2-29.52-0.06c-1.86,1.89-3.28,4.06-4.25,6.37
							c7.59-3.34,16.85-1.87,23.21,4.4c6.36,6.27,7.96,15.52,4.73,23.16c2.3-1.01,4.44-2.45,6.31-4.34
							C42.51,51.52,42.3,38.3,34.02,30.13z"/>
						<path class="st3" d="M26.8,45.12c3.46,5.79,3.94,12.84,1.39,18.88c2.3-1.01,4.44-2.45,6.31-4.34
							c6.74-6.84,7.66-17.26,2.87-25.26L26.8,45.12z"/>
						<path class="st4" d="M29.48,16.19c-6.84,6.95-11.61,14.78-13.99,22.15c2.18,1.13,4.24,2.59,6.08,4.41
							c1.84,1.82,3.34,3.86,4.5,6.02C33.4,46.3,41.16,41.42,48,34.47c10.87-11.03,16.52-24.3,15.64-34.41
							C53.53-0.67,40.35,5.16,29.48,16.19z"/>
						<path class="st5" d="M63.64,0.06c-1.15-0.08-42.4,42.39-42.4,42.39c0.11,0.1,0.21,0.2,0.32,0.3c1.84,1.82,3.34,3.86,4.5,6.02
							C33.4,46.3,41.16,41.42,48,34.47C58.88,23.44,64.52,10.17,63.64,0.06z"/>
						<path class="st6" d="M22.55,37.79c-4.52,4.59-7.63,9.36-8.37,12.47c3.1-0.79,7.82-3.96,12.35-8.55
							c4.52-4.59,7.63-9.36,8.37-12.47C31.79,30.02,27.07,33.2,22.55,37.79z"/>
						<path class="st3" d="M14.22,50.11c-0.01,0.05-0.03,0.1-0.04,0.15c3.1-0.79,7.82-3.96,12.35-8.55
							c4.52-4.59,7.63-9.36,8.37-12.47c-0.05,0.01-0.1,0.03-0.15,0.04L14.22,50.11z"/>
						<path class="st7" d="M46.29,3.99c2.37,2.05,4.73,4.22,7.06,6.52c2.33,2.3,4.54,4.64,6.62,6.98
							c2.84-6.15,4.12-12.21,3.67-17.42C58.43-0.32,52.4,1.06,46.29,3.99z"/>
						<path class="st1" d="M53.58,10.73c2.24,2.22,4.39,4.49,6.4,6.75c2.84-6.15,4.12-12.21,3.67-17.42
							c-0.09-0.01-0.19-0.01-0.28-0.02L53.58,10.73z"/>
						<path class="st0" d="M47.82,16.24l-0.06-0.06c-1.1-1.08-2.54-1.68-4.07-1.68c-1.53,0-2.96,0.59-4.02,1.66
							c-2.16,2.2-2.13,5.8,0.07,8.03l0.06,0.06c2.27,2.23,5.89,2.24,8.09,0.02C50.05,22.07,50.02,18.47,47.82,16.24z"/>
						<path class="st8" d="M46.79,17.16c-1.72-1.69-4.46-1.7-6.12-0.01c-1.66,1.69-1.62,4.43,0.1,6.13c1.71,1.69,4.46,1.7,6.12,0.01
							C48.55,21.6,48.51,18.85,46.79,17.16z"/>
					</g>
				</g>
			</g>
		</g>
		<g>
			<g>
				<path class="st0" d="M8.33,55.76c14.19-1.28,13.63-8.72,13.63-8.72l-2.36-2.4l-0.02-0.02l-2.36-2.4c0,0-7.43-0.66-8.9,13.51
					l-0.03,0.03c0.01,0,0.02,0,0.03,0c0,0.01,0,0.02,0,0.03L8.33,55.76z"/>
				<g>
					<g id="rocket_2_">
						
							<rect x="19.23" y="37.6" transform="matrix(0.7022 -0.712 0.712 0.7022 -24.7538 28.0767)" class="st1" width="3.91" height="12.06"/>
						<path class="st2" d="M34.02,30.13c-8.28-8.17-21.5-8.2-29.52-0.06c-1.86,1.89-3.28,4.06-4.25,6.37
							c7.59-3.34,16.85-1.87,23.21,4.4c6.36,6.27,7.96,15.52,4.73,23.16c2.3-1.01,4.44-2.45,6.31-4.34
							C42.51,51.52,42.3,38.3,34.02,30.13z"/>
						<path class="st3" d="M26.8,45.12c3.46,5.79,3.94,12.84,1.39,18.88c2.3-1.01,4.44-2.45,6.31-4.34
							c6.74-6.84,7.66-17.26,2.87-25.26L26.8,45.12z"/>
						<path class="st4" d="M29.48,16.19c-6.84,6.95-11.61,14.78-13.99,22.15c2.18,1.13,4.24,2.59,6.08,4.41
							c1.84,1.82,3.34,3.86,4.5,6.02C33.4,46.3,41.16,41.42,48,34.47c10.87-11.03,16.52-24.3,15.64-34.41
							C53.53-0.67,40.35,5.16,29.48,16.19z"/>
						<path class="st2" d="M46.27,3.97c-0.98,0.46-1.67,0.86-1.67,0.86c-0.04-0.01,8.68,6.84,14.46,14.57c0,0,0.73-1.42,0.92-1.91
							C59.85,12.67,52.85,4.18,46.27,3.97z"/>
						<path class="st6" d="M22.55,37.79c-4.52,4.59-7.63,9.36-8.37,12.47c3.1-0.79,7.82-3.96,12.35-8.55
							c4.52-4.59,7.63-9.36,8.37-12.47C31.79,30.02,27.07,33.2,22.55,37.79z"/>
						<path class="st3" d="M14.22,50.11c-0.01,0.05-0.03,0.1-0.04,0.15c3.1-0.79,7.82-3.96,12.35-8.55
							c4.52-4.59,7.63-9.36,8.37-12.47c-0.05,0.01-0.1,0.03-0.15,0.04L14.22,50.11z"/>
						<path class="st7" d="M46.26,3.97c2.37,2.05,4.76,4.24,7.09,6.53c2.33,2.3,4.54,4.64,6.62,6.98
							c2.84-6.15,4.12-12.21,3.67-17.42C58.43-0.32,52.37,1.05,46.26,3.97z"/>
						<path class="st1" d="M53.58,10.73c2.24,2.22,4.39,4.49,6.4,6.75c2.84-6.15,4.12-12.21,3.67-17.42
							c-0.09-0.01-0.19-0.01-0.28-0.02L53.58,10.73z"/>
						<path class="st1" d="M52.97,10.17c2.24,2.22,4.99,5.05,7,7.32c2.84-6.15,4.12-12.21,3.67-17.42
							c-0.09-0.01-0.19-0.01-0.28-0.02L52.97,10.17z"/>
						<path class="st0" d="M47.82,16.24l-0.06-0.06c-1.1-1.08-2.54-1.68-4.07-1.68c-1.53,0-2.96,0.59-4.02,1.66
							c-2.16,2.2-2.13,5.8,0.07,8.03l0.06,0.06c2.27,2.23,5.89,2.24,8.09,0.02C50.05,22.07,50.02,18.47,47.82,16.24z"/>
						<path class="st2" d="M46.79,17.16c-1.72-1.69-4.46-1.7-6.12-0.01c-1.66,1.69-1.62,4.43,0.1,6.13c1.71,1.69,4.46,1.7,6.12,0.01
							C48.55,21.6,48.51,18.85,46.79,17.16z"/>
					</g>
				</g>
			</g>
		</g>
		<path class="st9" d="M63.64,0.06c-1.15-0.08-42.4,42.39-42.4,42.39c0.11,0.1,0.21,0.2,0.32,0.3c1.84,1.82,3.34,3.86,4.5,6.02
			C33.4,46.3,41.16,41.42,48,34.47C58.88,23.44,64.52,10.17,63.64,0.06z"/>
	</g>
	<g>
		<g>
			<g>
				<circle class="st10" cx="43.24" cy="20.49" r="6.76"/>
			</g>
		</g>
		<g>
			<g>
				<path class="st10" d="M43.24,28.06c-2.02,0-3.92-0.79-5.35-2.22c-1.43-1.43-2.22-3.33-2.22-5.35c0-2.02,0.79-3.92,2.22-5.35
					c2.95-2.95,7.76-2.95,10.71,0c1.43,1.43,2.22,3.33,2.22,5.35c0,2.02-0.79,3.92-2.22,5.35l0,0l0,0
					C47.16,27.27,45.26,28.06,43.24,28.06z M43.24,13.16c-1.88,0-3.75,0.71-5.18,2.14c-1.38,1.38-2.15,3.22-2.15,5.18
					c0,1.96,0.76,3.8,2.15,5.18c1.38,1.38,3.22,2.15,5.18,2.15c1.96,0,3.8-0.76,5.18-2.15l0,0c1.38-1.38,2.15-3.22,2.15-5.18
					c0-1.96-0.76-3.8-2.15-5.18C46.99,13.88,45.12,13.16,43.24,13.16z"/>
			</g>
		</g>
		<g>
			<g>
				<path class="st11" d="M45,22.83c0.04-0.34-0.03-0.68-0.22-1.03c0.28,0.11,0.56,0.13,0.85,0.07c0.29-0.06,0.53-0.2,0.74-0.41
					c0.19-0.19,0.32-0.41,0.38-0.66c0.06-0.25,0.07-0.48,0.03-0.71c-0.04-0.23-0.14-0.45-0.28-0.65c-0.1-0.14-0.26-0.33-0.47-0.55
					l0.86-0.86l-0.67-0.67l-0.86,0.86l-0.44-0.44l0.86-0.86l-0.67-0.67l-0.86,0.86l-1.1-1.1l-0.74,0.74l0.44,0.44
					c0.17,0.17,0.17,0.45,0,0.62l-2.35,2.35c-0.17,0.17-0.45,0.17-0.62,0l-0.44-0.44l-0.74,0.74l1.1,1.1L39,22.37l0.67,0.67
					l0.81-0.81l0.44,0.44l-0.81,0.81l0.67,0.67l0.81-0.81c0.27,0.25,0.46,0.43,0.56,0.52c0.27,0.21,0.54,0.34,0.81,0.39
					c0.28,0.05,0.56,0.02,0.84-0.07c0.29-0.1,0.53-0.25,0.73-0.45C44.81,23.46,44.96,23.17,45,22.83z M44.66,18.99
					c0.42,0.42,0.54,0.55,0.62,0.65c0.13,0.17,0.19,0.33,0.18,0.5c-0.01,0.16-0.08,0.31-0.22,0.45c-0.14,0.14-0.3,0.22-0.48,0.22
					c-0.18,0-0.35-0.07-0.52-0.2c-0.1-0.08-0.19-0.15-0.54-0.5l-0.52-0.52l1.03-1.03L44.66,18.99z M43.03,22.87
					c-0.18,0.01-0.35-0.04-0.5-0.15c-0.11-0.07-0.19-0.13-0.51-0.46l-0.77-0.77l1.19-1.19l0.66,0.66c0.41,0.41,0.52,0.56,0.6,0.73
					c0.08,0.16,0.11,0.33,0.08,0.48c-0.03,0.16-0.11,0.3-0.24,0.44C43.37,22.77,43.2,22.86,43.03,22.87z"/>
			</g>
		</g>
	</g>
</g>
</svg>
