<?xml version="1.0" encoding="utf-8"?>
<!-- Generator: Adobe Illustrator 23.0.2, SVG Export Plug-In . SVG Version: 6.00 Build 0)  -->
<svg version="1.1" id="Layer_1" xmlns="http://www.w3.org/2000/svg" xmlns:xlink="http://www.w3.org/1999/xlink" x="0px" y="0px"
	 viewBox="0 0 64 64" style="enable-background:new 0 0 64 64;" xml:space="preserve">
<style type="text/css">
	.st0{fill:#F27899;}
	.st1{fill:#F6A2B8;}
	.st2{fill:url(#SVGID_1_);}
	.st3{fill:url(#SVGID_2_);}
	.st4{fill:#311815;}
	.st5{fill:url(#SVGID_3_);}
	.st6{clip-path:url(#SVGID_5_);}
	.st7{fill:#EE6623;}
	.st8{fill:#FED309;}
	.st9{fill:none;}
</style>
<g>
	<g>
		<g>
			<path class="st0" d="M10.93,50.63c0,0,1.1,1.18,0.93,3.45c-0.17,2.27-0.06,5.31,3.66,5.91c3.71,0.6,4.78-2.2,6.06-3.59
				C22.84,55.01,17.88,47.07,10.93,50.63z"/>
			<path class="st0" d="M55.06,50.11c0,0-0.7,1.8-0.78,4.17c-0.08,2.37,1.91,5.13-2.84,5.44c-4.76,0.31-4.22-4.46-5.86-3.96
				c-1.64,0.51-1.16-4.76,2.81-7C52.35,46.52,56.18,47.18,55.06,50.11z"/>
			<path class="st1" d="M63.09,29.23c-1.07-5.41-3.13-10.94-7.02-15.22c0.2-1.5,0.86-7.91-2.16-9.55c-2.68-1.45-4.73,1.1-5.62,4.06
				c-3.16-1.34-6.95-2.14-11.48-2.2C19.07,6.11,9.13,11.18,5.07,24.62c-4.06,13.44,1.35,30.32,21.3,32.7
				c19.95,2.38,28.23-6.74,28.23-6.74S65.28,40.32,63.09,29.23z"/>
			
				<linearGradient id="SVGID_1_" gradientUnits="userSpaceOnUse" x1="7.3441" y1="12.5374" x2="7.0913" y2="-3.1364" gradientTransform="matrix(0.9994 0.0337 -0.0337 0.9994 4.8401 -1.301)">
				<stop  offset="0" style="stop-color:#F6A2B8"/>
				<stop  offset="1" style="stop-color:#F27899"/>
			</linearGradient>
			<path class="st2" d="M22.79,9.11c0,0-1.82-0.02-3.49-1.06c-1.67-1.04-7.46-6.35-14.51-4.22C-2.27,5.96,1.34,14.05,2.79,16.1
				c1.45,2.04,3.32,4.74,2.48,7.86c-0.84,3.13,4.68-0.22,9.22-3.2C25.12,13.81,22.79,9.11,22.79,9.11z"/>
			<path class="st0" d="M16.71,14.19c1.54,0.12,0.51-4.01-2.94-5.82C10.33,6.57,3.53,5.11,2.05,7.05C0.58,9,2.45,15.04,5.01,17.97
				C7.57,20.91,5.78,13.35,16.71,14.19z"/>
			
				<linearGradient id="SVGID_2_" gradientUnits="userSpaceOnUse" x1="33.3616" y1="58.4245" x2="37.6302" y2="66.1081" gradientTransform="matrix(0.9994 0.0337 -0.0337 0.9994 4.8401 -1.301)">
				<stop  offset="0" style="stop-color:#F6A2B8"/>
				<stop  offset="1" style="stop-color:#F27899"/>
			</linearGradient>
			<path class="st3" d="M44.09,56.23c0,0-1.46,0.03-2.02,2.67c-0.56,2.64-1.18,5.09-6.23,5.1c-5.05,0.02-4.55-0.82-5.46-1.99
				c-0.91-1.17-2.35-4.34-4.95-4.81c-2.6-0.48-6.89-7.16,3.87-8.03C40.05,48.29,49.82,53.59,44.09,56.23z"/>
			<path class="st0" d="M39.06,7.62c0,0-0.05,0-0.14,0c-0.09,0-0.23,0-0.4,0.01c-0.35,0.01-0.85,0.04-1.44,0.1
				c-0.3,0.03-0.62,0.07-0.96,0.11c-0.34,0.04-0.7,0.1-1.07,0.17c-0.37,0.07-0.75,0.14-1.13,0.23c-0.38,0.09-0.77,0.18-1.15,0.29
				c-0.38,0.11-0.76,0.22-1.13,0.35c-0.18,0.06-0.37,0.13-0.55,0.19c-0.18,0.07-0.35,0.14-0.53,0.2c-0.17,0.07-0.34,0.14-0.5,0.21
				c-0.16,0.07-0.32,0.14-0.47,0.21c-0.3,0.15-0.59,0.29-0.85,0.43c-0.06,0.03-0.13,0.07-0.19,0.1c-0.06,0.04-0.12,0.07-0.18,0.1
				c-0.12,0.07-0.22,0.13-0.33,0.19c-0.2,0.13-0.38,0.23-0.52,0.33c-0.28,0.19-0.44,0.3-0.44,0.3l-0.02,0.02
				c-0.33,0.23-0.79,0.14-1.01-0.19c-0.23-0.33-0.14-0.79,0.19-1.02c0.01-0.01,0.02-0.01,0.03-0.02c0,0,0.18-0.11,0.5-0.3
				c0.16-0.09,0.36-0.2,0.58-0.33c0.11-0.06,0.24-0.12,0.37-0.19c0.06-0.03,0.13-0.07,0.2-0.1c0.07-0.03,0.14-0.06,0.21-0.1
				c0.29-0.14,0.6-0.27,0.93-0.41c0.17-0.07,0.34-0.13,0.52-0.2c0.18-0.06,0.36-0.13,0.55-0.2c0.19-0.06,0.38-0.12,0.57-0.19
				c0.19-0.06,0.39-0.12,0.59-0.17c0.4-0.11,0.8-0.21,1.21-0.3c0.41-0.09,0.81-0.17,1.22-0.24c0.4-0.07,0.8-0.13,1.19-0.18
				c0.39-0.05,0.76-0.09,1.11-0.12c0.35-0.03,0.69-0.05,1-0.07c0.62-0.03,1.14-0.03,1.5-0.02c0.18,0,0.33,0.01,0.42,0.01
				c0.1,0.01,0.15,0.01,0.15,0.01c0.22,0.01,0.39,0.2,0.38,0.42c-0.01,0.21-0.19,0.38-0.4,0.38L39.06,7.62z"/>
			<path class="st0" d="M12.79,44.13c0,0,11.57,4.28,14.09,0c2.52-4.28-3.55-9.99-12.68-9.44C5.06,35.23,8.82,43.62,12.79,44.13z"/>
			<path class="st4" d="M29.55,31.86c-0.04,1.07-0.93,1.91-2.01,1.88c-1.07-0.04-1.91-0.93-1.88-2.01c0.04-1.07,0.93-1.91,2.01-1.88
				C28.75,29.88,29.59,30.78,29.55,31.86z"/>
			<path class="st4" d="M13.65,30.27c-0.04,1.07-0.93,1.91-2.01,1.88c-1.07-0.04-1.91-0.93-1.88-2.01c0.04-1.07,0.93-1.91,2.01-1.88
				C12.85,28.3,13.69,29.2,13.65,30.27z"/>
			
				<linearGradient id="SVGID_3_" gradientUnits="userSpaceOnUse" x1="35.6509" y1="18.2452" x2="46.6641" y2="8.6143" gradientTransform="matrix(0.9994 0.0337 -0.0337 0.9994 4.8401 -1.301)">
				<stop  offset="0" style="stop-color:#F6A2B8"/>
				<stop  offset="1" style="stop-color:#F27899"/>
			</linearGradient>
			<path class="st5" d="M30.76,12.14c0,0,4.08-6.13,10.53-3.56c6.84,2.73,7.34,15.01,7.11,16.1c-0.23,1.09-3.08,2.89-6.27,1.18
				c-4.27-2.28-2.37-7.81-10.75-9.8C28.08,15.27,29.55,13.12,30.76,12.14z"/>
			<path class="st0" d="M30.01,14.67c0,0,3.12-5.66,7.36-4.8c1.17,0.24,4.07,1.36,5.38,4.88c1.25,3.37,1.5,8.45-0.28,10.65
				c-1.03,1.26-0.54-3.48-5.52-6.74C30.41,14.36,30.43,18.13,30.01,14.67z"/>
			<g>
				<defs>
					<path id="SVGID_4_" d="M39.09,6.81c0,0-0.05,0-0.15-0.01c-0.09,0-0.23-0.01-0.39-0.01c0.97-0.76,1.57-2.08,1.12-3.28
						c-1.57-4.14-6.02-6.13-10.26-5.35c-1.95,0.36-3.89,1.71-4.72,3.54c-0.7,1.53-0.74,3.13-1.21,4.73
						C23,8.05,24.03,9.8,25.64,10.24c0.11,0.03,0.22,0.05,0.33,0.07c-0.07,0.21-0.05,0.44,0.09,0.64c0.23,0.33,0.68,0.42,1.01,0.19
						l0.02-0.02c0,0,0.16-0.11,0.44-0.3c0.14-0.09,0.32-0.2,0.52-0.33c0.1-0.06,0.21-0.12,0.33-0.19c0.06-0.03,0.12-0.07,0.18-0.1
						c0.06-0.03,0.13-0.07,0.19-0.1c0.26-0.14,0.54-0.28,0.85-0.43c0.15-0.07,0.31-0.14,0.47-0.21c0.16-0.07,0.33-0.14,0.5-0.21
						c0.17-0.07,0.35-0.13,0.53-0.2c0.18-0.06,0.36-0.13,0.55-0.19c0.37-0.12,0.75-0.24,1.13-0.35c0.38-0.11,0.77-0.2,1.15-0.29
						c0.38-0.09,0.76-0.16,1.13-0.23c0.37-0.06,0.73-0.12,1.07-0.17c0.34-0.05,0.66-0.08,0.96-0.11c0.6-0.06,1.09-0.09,1.44-0.1
						c0.17-0.01,0.31-0.01,0.4-0.01c0.09,0,0.14,0,0.14,0l0.01,0c0.21,0,0.39-0.17,0.4-0.38C39.48,7.02,39.31,6.83,39.09,6.81z"/>
				</defs>
				<clipPath id="SVGID_5_">
					<use xlink:href="#SVGID_4_"  style="overflow:visible;"/>
				</clipPath>
				<g class="st6">
					<path class="st7" d="M31.8,0.54c-0.07-0.01-0.15-0.02-0.22-0.03c-3.12-0.29-5.89,2.09-6.19,5.31c-0.29,3.22,2,6.06,5.12,6.35
						c0.07,0.01,0.15,0.01,0.22,0.02c0.07,0.01,0.15,0.02,0.22,0.03c0.08,0.01,0.15,0.01,0.22,0.01c0.07,0.01,0.15,0.02,0.22,0.03
						c0.08,0.01,0.15,0.01,0.23,0.01c0.07,0.01,0.15,0.02,0.22,0.03c3.12,0.29,5.89-2.09,6.19-5.31c0.29-3.22-2-6.06-5.12-6.35
						c-0.08-0.01-0.15-0.01-0.22-0.01c-0.07-0.01-0.15-0.02-0.22-0.03c-0.08-0.01-0.15-0.01-0.22-0.02
						c-0.07-0.01-0.15-0.02-0.22-0.03C31.95,0.54,31.88,0.54,31.8,0.54z"/>
					<path class="st8" d="M31.75,0.53c3.22,0.29,5.59,3.14,5.29,6.36c-0.29,3.22-3.14,5.59-6.36,5.29
						c-3.22-0.29-5.59-3.14-5.29-6.36C25.69,2.6,28.54,0.23,31.75,0.53z"/>
					<g>
						<path class="st7" d="M31.22,11.17c-0.39,0-0.78-0.05-1.18-0.15c-0.09-0.02-0.14-0.11-0.12-0.2c0.02-0.09,0.11-0.14,0.2-0.12
							c2.4,0.6,4.84-0.86,5.44-3.25c0.29-1.16,0.12-2.37-0.5-3.39C34.45,3.02,33.48,2.3,32.31,2c-1.16-0.29-2.37-0.12-3.39,0.5
							c-1.03,0.61-1.75,1.59-2.05,2.75c-0.02,0.09-0.11,0.14-0.2,0.12c-0.09-0.02-0.14-0.11-0.12-0.2c0.31-1.25,1.1-2.3,2.2-2.96
							c1.1-0.66,2.4-0.85,3.65-0.54c1.25,0.31,2.3,1.1,2.96,2.2c0.66,1.1,0.85,2.4,0.54,3.65C35.34,9.71,33.37,11.17,31.22,11.17z"
							/>
					</g>
					<g>
						<path class="st7" d="M28.17,9.98c-0.03,0-0.07-0.01-0.09-0.03c-1.51-1.02-1.38-2.4-1.37-2.46c0.01-0.09,0.09-0.16,0.19-0.15
							c0.09,0.01,0.16,0.09,0.15,0.18c-0.01,0.05-0.11,1.24,1.23,2.15c0.08,0.05,0.1,0.16,0.04,0.23
							C28.27,9.96,28.22,9.98,28.17,9.98z"/>
					</g>
				</g>
			</g>
		</g>
	</g>
	<path class="st4" d="M14.25,46.55l8.43,0.71c0.48,0.04,0.61,0.68,0.19,0.9c-1.88,1.01-5.6,2.31-8.99-0.78
		C13.54,47.07,13.79,46.51,14.25,46.55z"/>
	<path class="st4" d="M20.01,43.87c1.32,0.07,1.38-5.9,0.31-6.13C19.25,37.51,18.65,43.81,20.01,43.87z"/>
	<path class="st4" d="M14.21,42.5c1.32,0.06,1.38-5.45,0.32-5.66C13.46,36.63,12.85,42.44,14.21,42.5z"/>
	<path class="st9" d="M32.24,7.04C32.12,7,31.98,6.98,31.57,6.98l-0.67,0l0,1.21l0.78,0c0.33,0,0.4-0.01,0.49-0.03
		c0.14-0.02,0.25-0.08,0.33-0.18c0.08-0.1,0.13-0.22,0.13-0.38c0-0.14-0.03-0.25-0.1-0.34C32.46,7.15,32.36,7.09,32.24,7.04z"/>
	<path class="st9" d="M31.95,6.21c0.16-0.02,0.28-0.07,0.37-0.16c0.09-0.09,0.13-0.21,0.13-0.35c0-0.14-0.04-0.25-0.12-0.34
		C32.26,5.27,32.15,5.22,32,5.2c-0.09-0.01-0.21-0.02-0.64-0.02l-0.46,0l0,1.04l0.53,0C31.78,6.23,31.87,6.22,31.95,6.21z"/>
	<path class="st9" d="M30.88,8.94l0,0.2c0.14-0.05,0.29-0.11,0.44-0.17l0-0.03L30.88,8.94z"/>
	<path class="st7" d="M33.56,8.23c0.09-0.19,0.14-0.39,0.14-0.6c0-0.26-0.07-0.49-0.22-0.68c-0.15-0.19-0.36-0.33-0.63-0.41
		c0.2-0.09,0.35-0.22,0.46-0.4c0.11-0.18,0.17-0.37,0.17-0.58c0-0.19-0.05-0.37-0.14-0.53c-0.09-0.16-0.21-0.28-0.35-0.38
		c-0.14-0.09-0.3-0.16-0.47-0.19c-0.13-0.02-0.3-0.03-0.52-0.04l0-0.87l-0.68,0l0,0.87l-0.44,0l0-0.87l-0.67,0l0,0.87l-1.11,0
		l0,0.75l0.45,0c0.17,0,0.31,0.14,0.31,0.31l0,2.39c0,0.17-0.14,0.31-0.31,0.31l-0.45,0l0,0.75l1.11,0l0,0.47
		c0.16-0.07,0.39-0.16,0.67-0.27l0-0.2l0.44,0l0,0.03c0.63-0.23,1.42-0.49,2.19-0.68C33.53,8.28,33.54,8.26,33.56,8.23z M30.9,5.18
		l0.46,0c0.43,0,0.55,0,0.64,0.02c0.15,0.02,0.27,0.07,0.34,0.16c0.08,0.09,0.11,0.2,0.12,0.34c0,0.15-0.04,0.26-0.13,0.35
		c-0.09,0.09-0.21,0.14-0.37,0.16c-0.09,0.01-0.17,0.02-0.53,0.02l-0.53,0L30.9,5.18z M32.5,7.98c-0.09,0.1-0.2,0.16-0.33,0.18
		C32.08,8.17,32,8.18,31.67,8.18l-0.78,0l0-1.21l0.67,0c0.41,0,0.55,0.02,0.67,0.06c0.12,0.04,0.22,0.11,0.28,0.21
		c0.07,0.09,0.1,0.21,0.1,0.34C32.62,7.75,32.58,7.88,32.5,7.98z"/>
</g>
</svg>
