<?xml version="1.0" encoding="utf-8"?>
<!-- Generator: Adobe Illustrator 23.0.2, SVG Export Plug-In . SVG Version: 6.00 Build 0)  -->
<svg version="1.1" id="Layer_1" xmlns="http://www.w3.org/2000/svg" xmlns:xlink="http://www.w3.org/1999/xlink" x="0px" y="0px"
	 viewBox="0 0 92 70" style="enable-background:new 0 0 92 70;" xml:space="preserve">
<style type="text/css">
	.st0{fill:#4978BC;}
	.st1{fill:#FDB913;}
	.st2{fill:#ED1C24;}
	.st3{fill:#00A651;}
</style>
<g>
	<path class="st0" d="M2.64,59.71l6.64,6.65c0.85,0.85,2.23,0.85,3.08,0l22.9-22.94l-9.72-9.74L2.64,56.62
		C1.79,57.48,1.79,58.86,2.64,59.71z"/>
	<polygon class="st1" points="47.57,36.28 57.29,46.01 81.01,22.26 71.28,12.52 	"/>
	<path class="st2" d="M47.57,36.28l-2.59-2.59l-8.18-8.2c-0.85-0.85-2.23-0.85-3.08,0l-8.18,8.2l9.72,9.74l2.59,2.59l8.18,8.2
		c0.85,0.85,2.23,0.85,3.08,0l8.18-8.2L47.57,36.28z"/>
	<path class="st3" d="M88.57,3L64.7,3.08c-1.05,0-1.57,1.27-0.83,2.01l7.42,7.43l9.72,9.74l6.99,7c0.74,0.74,2,0.22,2.01-0.83
		l0.08-23.91C90.09,3.68,89.41,3,88.57,3z"/>
</g>
</svg>
